# xmcd CD database file
#
# Track frame offsets:
#	150
#	14572
#	28708
#	48469
#	67461
#	85459
#	101005
#	121038
#	137702
#	153936
#
# Disc length: 2378 seconds
#
# Revision: 0
# Processed by: cddbd v1.5.2PL0 Copyright (c) Steve Scherf et al.
# Submitted via: CDex 1.51
#
DISCID=8909480a
DTITLE=Suzy Bogguss and Chet Atktns - Simpatico
DYEAR=1994
DGENRE=Country
TTITLE0=In the Jailhouse Now
TTITLE1=When She Smiled at Him
TTITLE2=Forget About It
TTITLE3=Wives Don't Like Old Girlfriends
TTITLE4=Sorry Seems to Be the Hardest Word
TTITLE5=Two Shades of Blue
TTITLE6=One More for the Road
TTITLE7=I Still Miss Someone
TTITLE8=You Bring Out the Best in Me
TTITLE9=This Is the Beginning
EXTD=YEAR: 1994
EXTT0=
EXTT1=
EXTT2=
EXTT3=
EXTT4=
EXTT5=
EXTT6=
EXTT7=
EXTT8=
EXTT9=
PLAYORDER=
